<?xml version="1.0" encoding="utf-8"?>
<!-- Generator: Adobe Illustrator 27.2.0, SVG Export Plug-In . SVG Version: 6.00 Build 0)  -->
<svg version="1.1" id="Layer_1" xmlns="http://www.w3.org/2000/svg" xmlns:xlink="http://www.w3.org/1999/xlink" x="0px" y="0px"
	 viewBox="0 0 200 200" style="enable-background:new 0 0 200 200;" xml:space="preserve">
<g id="layer101">
	<path d="M86.6,199.3c-28.6-3.2-55.7-20.5-71.8-46.1C-0.4,129.5-4.2,95.8,4.9,69C15.6,37.4,37.3,15.7,68.9,4.9
		c19.3-6.6,42.9-6.6,62.2,0c41.4,14.1,68.3,50.5,68.8,92.7c0.2,18-2.4,29.4-10.1,45.4C171.4,182.1,130.7,204.3,86.6,199.3z
		 M109.7,189c5.7-6.2,18.8-31.3,24.1-46.1c4-11.8,6.2-15,14.3-22.7c5.2-5,11.6-12.5,14-16.5c4.5-7.6,9.3-30.3,7.1-33.8
		c-2-3.4-19.2-5.7-29.6-4c-9.9,1.5-9.9,1.5-19.3-5.2c-5-3.7-13.6-9.1-18.8-11.8c-7.7-4-9.6-5.9-9.6-9.3c0-6.1-4.4-23.6-6.4-25.6
		c-2.2-2.2-15.6,4.7-24.7,12.6c-3.9,3.2-8.2,8.9-10.1,12.5C46.9,46.5,37,53.9,22.3,60.5c-5.9,2.5-9.8,5.2-9.8,6.7s0.5,2.7,1,2.7
		s8.6-3.9,17.7-8.8c13.5-6.9,17.3-9.8,19.5-14.3c4.2-9.1,26.9-29.1,33-29.1c1.2,0,0.3,19.2-1.2,27.4c0,0.7,4.7,3.4,10.6,6.1
		c5.7,2.7,14.1,7.7,18.3,11.3c16.5,13.8,14.6,13.1,23.4,10.1c4.4-1.5,13-2.7,19.3-2.7h11.4v7.4c0,10.3-8.7,26.4-21.2,39
		c-7.2,7.4-10.6,12.3-11.4,16.5c-2,10.9-19.9,43.4-27.4,50.5c-4,3.5-6.7,7.1-6.2,7.9C101.1,193.9,106.1,192.7,109.7,189z
		 M89.5,179.1c7.1-3.4,15.5-13.1,21.4-24.6c3-6.1,3.7-25.7,1-28.4c-1.3-1.3-1.3-4.2-0.2-9.3c1-4,1.9-13.5,1.9-20.9
		c0-13.5,0-13.5-5.7-17.3c-4-2.9-7.6-3.7-12.1-3.4c-6.1,0.5-6.6,0.2-6.7-3.9c-0.3-7.9-2.4-13.1-5.7-14.1c-4.2-1.3-23,2-27.6,5
		c-2,1.3-9.1,3.9-15.8,5.7C32.6,70,23.7,74.1,18,78l-9.6,6.6V102c0,14.3,0.7,19.5,4,28.4c7.4,20,20.5,36.9,36.8,47.3
		c6.7,4.2,9.3,4.9,20.4,4.9C78.9,182.6,84.1,181.8,89.5,179.1z M140.6,110.8c9.6-10.8,16.7-22.9,19.3-33.2l1.2-4.9l-11.9,1
		c-6.6,0.7-14.6,2.4-17.7,3.9c-5.2,2.5-5.6,3-3.9,6.7c1,2.2,2.4,4,3.2,4c0.7,0,1.2,6.1,1.2,13.5C132,117,133.5,118.5,140.6,110.8z
		 M70,48.2c2.5-2.5,9.9-21.4,9.9-25.6c0-3-18.3,12.6-24.9,21c-5.9,7.7-5,9.6,4.2,8.2C63.6,51.4,68.4,49.7,70,48.2z"/>
	<path d="M30.1,150.3c-4.9-4.2-5.7-6.1-5.6-12.1v-6.9l3.9,8.6c3.9,8.6,6.7,10.8,13,10.8c4.2,0,2.9,2.7-1.9,3.9
		C37.2,155.2,34.1,153.9,30.1,150.3z"/>
	<path d="M41.7,141.4c-10.9-4.7-12.3-7.6-12.3-25.2c0-9.6,0.7-16,1.7-16c1,0,1.7,2.4,1.7,5c0,4.7,0.3,5,6.6,5
		c10.9,0,23.4,12.1,26.2,25.7c0.7,3.7,1.9,4.5,5.9,4.5c2.9,0,5,0.8,5,1.7C76.5,144.8,47.9,144.3,41.7,141.4z M61.2,134.7
		c-2-7.1-17.7-21-23.7-21c-4.5,0-4.7,0.3-4.7,8.1c0,4.5,1,9.4,2.2,10.9c3.7,4.9,11.8,7.9,19.9,7.6C62.6,139.7,62.6,139.7,61.2,134.7
		z"/>
	<path d="M68.9,109.4c-0.8-0.3-3.9-1-6.4-1.5c-4.7-1.2-11.3-9.6-11.3-14.8c0-4.5,4.9-8.1,10.9-8.1c10.3,0,19,16.5,12.3,23.2
		C72.5,110.3,72,110.4,68.9,109.4z"/>
	<path d="M99.2,106.9c-0.5-1.9-2.9-3.9-5.2-4.4c-5.7-1.5-5-4,1-4c4,0,5.6,1,6.7,4.4c2,5.4,2.2,7.4,0.2,7.4
		C101.1,110.3,99.7,108.8,99.2,106.9z"/>
	<path d="M62.7,79.6c-0.3-2.9-1.9-4-5-4.4c-5.4-0.7-6.4-3.7-1.2-3.7c5.7,0,9.9,3.2,9.9,7.6C66.4,84.4,63.6,84.7,62.7,79.6z"/>
</g>
</svg>
